HIERARCHY
ROOT Hips
{
	OFFSET 0.00000 0.00000 0.00000
	CHANNELS 6 Xposition Yposition Zposition Zrotation Yrotation Xrotation 
	JOINT LHipJoint
	{
		OFFSET 0 0 0
		CHANNELS 3 Zrotation Yrotation Xrotation
		JOINT LeftHip
		{
			OFFSET 1.48831 -1.59570 0.95625
			CHANNELS 3 Zrotation Yrotation Xrotation
			JOINT LeftKnee
			{
				OFFSET 2.20856 -6.06797 0.00000
				CHANNELS 3 Zrotation Yrotation Xrotation
				JOINT LeftAnkle
				{
					OFFSET 2.62924 -7.22379 0.00000
					CHANNELS 3 Zrotation Yrotation Xrotation
					JOINT LeftToe
					{
						OFFSET 0.16802 -0.46163 2.41673
						CHANNELS 3 Zrotation Yrotation Xrotation
						End Site
						{
							OFFSET 0.00000 -0.00000 1.23760
						}
					}
				}
			}
		}
	}
	JOINT RHipJoint
	{
		OFFSET 0 0 0
		CHANNELS 3 Zrotation Yrotation Xrotation
		JOINT RightHip
		{
			OFFSET -1.56796 -1.59570 0.95625
			CHANNELS 3 Zrotation Yrotation Xrotation
			JOINT RightKnee
			{
				OFFSET -2.29239 -6.29829 0.00000
				CHANNELS 3 Zrotation Yrotation Xrotation
				JOINT RightAnkle
				{
					OFFSET -2.66963 -7.33475 0.00000
					CHANNELS 3 Zrotation Yrotation Xrotation
					JOINT RightToe
					{
						OFFSET -0.18185 -0.49964 2.34359
						CHANNELS 3 Zrotation Yrotation Xrotation
						End Site
						{
							OFFSET -0.00000 -0.00000 1.20477
						}
					}
				}
			}
		}
	}
	JOINT lowerback
	{
		OFFSET 0 0 0
		CHANNELS 3 Zrotation Yrotation Xrotation
		JOINT Chest
		{
			OFFSET 0.03505 2.15832 -0.34324
			CHANNELS 3 Zrotation Yrotation Xrotation
			JOINT Chest2
			{
				OFFSET -0.01089 2.17963 0.04689
				CHANNELS 3 Zrotation Yrotation Xrotation
				JOINT lowerneck
				{
					OFFSET 0 0 0
					CHANNELS 3 Zrotation Yrotation Xrotation
					JOINT Neck
					{
						OFFSET 0.04686 1.69404 0.22159
						CHANNELS 3 Zrotation Yrotation Xrotation
						JOINT Head
						{
							OFFSET 0.00265 1.69305 -0.01513
							CHANNELS 3 Zrotation Yrotation Xrotation
							End Site
							{
								OFFSET -0.00415 1.80215 -0.03034
							}
						}
					}
				}
				JOINT LeftCollar
				{
					OFFSET 0 0 0
					CHANNELS 3 Zrotation Yrotation Xrotation
					JOINT LeftShoulder
					{
						OFFSET 3.67184 1.11724 -0.19002
CHANNELS 3 Zrotation Xrotation Yrotation
						JOINT LeftElbow
						{
OFFSET 0 -5.177140 -0.000000
CHANNELS 3 Zrotation Xrotation Yrotation
							JOINT LeftWrist
							{
OFFSET 0 -3.436790 -0.000000
CHANNELS 3 Zrotation Xrotation Yrotation
								JOINT lhand
								{
									OFFSET 0 0 0
CHANNELS 3 Zrotation Xrotation Yrotation
									JOINT LFingers
									{
OFFSET 0 -0.573120 -0.000000
CHANNELS 3 Zrotation Xrotation Yrotation
										End Site
										{
OFFSET 0 -0.462060 -0.000000
										}
									}
								}
								JOINT LThumb
								{
OFFSET 0 0.000000 0.000000
CHANNELS 3 Zrotation Xrotation Yrotation
									End Site
									{
OFFSET 0 -0.469120 0.469120
									}
								}
							}
						}
					}
				}
				JOINT RightCollar
				{
					OFFSET 0 0 0
					CHANNELS 3 Zrotation Yrotation Xrotation
					JOINT RightShoulder
					{
						OFFSET -3.59596 0.95831 -0.26050
CHANNELS 3 Zrotation Xrotation Yrotation
						JOINT RightElbow
						{
OFFSET 0 -5.239080 -0.000000
CHANNELS 3 Zrotation Xrotation Yrotation
							JOINT RightWrist
							{
OFFSET 0 -3.464850 -0.000000
CHANNELS 3 Zrotation Xrotation Yrotation
								JOINT rhand
								{
									OFFSET 0 0 0
CHANNELS 3 Zrotation Xrotation Yrotation
									JOINT RFingers
									{
OFFSET 0 -0.608750 -0.000000
CHANNELS 3 Zrotation Xrotation Yrotation
										End Site
										{
OFFSET 0 -0.490790 -0.000000
										}
									}
								}
								JOINT RThumb
								{
OFFSET 0 0.000000 0.000000
CHANNELS 3 Zrotation Xrotation Yrotation
									End Site
									{
OFFSET 0 -0.498290 0.498290
									}
								}
							}
						}
					}
				}
			}
		}
	}
}
MOTION
Frames: 5
Frame Time: 0.008333333333333333
4.250210 16.095813 -22.303404 -165.377845 -53.397768 164.203616 0.000000 0.000000 0.000000 -5.081859 -0.677449 -13.432025 3.528643 11.505258 34.003364 0.689155 -14.576346 -16.812484 0.103211 -2.071144 -5.702337 0.000000 0.000000 0.000000 31.559032 -10.377304 -5.759914 -2.969489 -10.645370 31.093230 -3.325703 -8.197279 -37.977361 -0.083155 -1.858536 5.115048 1.362901 4.424341 -5.434795 -5.722444 6.007975 5.426591 -6.081108 3.143906 9.632907 -7.051626 -3.994475 12.511600 19.969150 -6.748040 1.749449 7.585538 -4.193105 -0.695426 0.000000 0.000000 0.000000 14.988719 1.996607 -5.580739 12.518794 -20.578060 2.281436 16.750182 -22.635048 -10.532582 0.000000 0.000000 0.000000 -7.125000 0.000000 0.000000 -9.107854 40.799681 -0.952364 0.000000 0.000000 0.000000 -59.006825 -21.892337 37.643364 -156.389032 -34.750014 -112.516345 -34.617948 -47.343180 22.943627 0.000000 0.000000 0.000000 7.125000 0.000000 0.000000 -6.263623 57.090644 1.860393
4.404117 16.097137 -22.365199 -162.885738 -56.041240 161.966768 0.000000 0.000000 0.000000 -3.738683 -1.860902 -14.804214 3.620034 11.636843 34.459092 0.378792 -15.984592 -14.822849 0.080059 -1.824972 -5.022201 0.000000 0.000000 0.000000 33.363242 -10.833098 -6.001893 -2.818936 -10.395993 30.268955 -3.589201 -8.835031 -39.576628 -0.162254 -2.593015 7.147815 1.355942 4.266098 -4.893087 -5.242117 5.772616 5.719942 -5.616076 3.017919 9.542043 -7.178787 -4.411419 12.823408 20.282766 -7.185731 0.926459 7.745835 -4.455923 -0.906579 0.000000 0.000000 0.000000 14.495712 2.718384 -5.595634 13.102478 -21.436975 2.490710 16.630042 -24.137841 -10.427862 0.000000 0.000000 0.000000 -7.125000 0.000000 0.000000 -9.192359 40.681520 -0.988323 0.000000 0.000000 0.000000 -58.647190 -20.594925 37.153608 -157.239490 -33.825620 -112.995422 -34.825190 -46.507898 23.187449 0.000000 0.000000 0.000000 7.125000 0.000000 0.000000 -6.472455 57.418069 1.974003
4.554385 16.086858 -22.417990 -159.926705 -58.698630 159.094339 0.000000 0.000000 0.000000 -2.490630 -3.174313 -16.195957 3.757328 11.830149 35.133860 0.074539 -17.290755 -12.858651 0.058630 -1.561949 -4.296498 0.000000 0.000000 0.000000 35.019122 -11.648518 -6.364998 -2.693802 -10.182025 29.568309 -3.821324 -9.410390 -40.948879 -0.237458 -3.135612 8.656568 1.537105 4.019994 -4.180559 -4.722363 5.395043 6.124957 -5.243389 2.833732 9.477503 -7.220398 -4.810792 13.074402 20.438154 -7.552984 -0.034231 7.841488 -4.678712 -1.162625 0.000000 0.000000 0.000000 13.925395 3.448406 -5.737178 13.792716 -22.437453 2.748612 16.262784 -25.425845 -10.426990 0.000000 0.000000 0.000000 -7.125000 0.000000 0.000000 -9.511332 40.648593 -1.031094 0.000000 0.000000 0.000000 -58.397303 -19.570793 36.470440 -157.961685 -33.020163 -113.393202 -35.130544 -45.691174 23.452501 0.000000 0.000000 0.000000 7.125000 0.000000 0.000000 -6.796501 57.794560 2.135162
4.699627 16.066027 -22.455777 -156.546481 -61.264366 155.661928 0.000000 0.000000 0.000000 -1.421477 -4.565471 -17.639714 3.948893 12.092039 36.058548 -0.219251 -18.512967 -10.953919 0.039731 -1.286275 -3.536761 0.000000 0.000000 0.000000 36.418764 -12.875936 -6.967707 -2.615003 -10.044048 29.119659 -3.987982 -9.835853 -41.917166 -0.289320 -3.458756 9.558720 1.938098 3.735834 -3.380514 -4.208148 4.945425 6.609187 -5.011027 2.628841 9.469351 -7.211740 -5.191021 13.495853 20.458962 -7.849155 -1.222269 7.901470 -4.876971 -1.528006 0.000000 0.000000 0.000000 13.257287 4.111787 -5.811925 14.496331 -23.439720 3.022759 15.991075 -26.013765 -10.543044 0.000000 0.000000 0.000000 -7.125000 0.000000 0.000000 -9.770154 40.743500 -1.036695 0.000000 0.000000 0.000000 -58.240358 -18.714966 35.658253 -158.579933 -32.315289 -113.727045 -35.399318 -44.802708 23.671546 0.000000 0.000000 0.000000 7.125000 0.000000 0.000000 -7.087153 58.110827 2.280990
4.842857 16.035466 -22.483114 -153.277152 -63.512733 152.220778 0.000000 0.000000 0.000000 -0.656264 -5.740119 -19.134543 4.181812 12.398467 37.156732 -0.484667 -19.577916 -9.211954 0.027428 -1.068487 -2.937312 0.000000 0.000000 0.000000 37.466934 -14.062805 -7.807127 -2.615075 -10.044169 29.119743 -4.140110 -10.095968 -42.719039 -0.325793 -3.668548 10.146113 2.341287 3.561640 -2.566754 -3.750141 4.643164 7.133795 -4.817957 2.495398 9.524509 -7.142901 -5.641625 14.027142 20.339920 -8.218287 -2.525025 7.921698 -5.113324 -1.941509 0.000000 0.000000 0.000000 12.537596 4.601919 -5.896213 15.133898 -24.332210 3.280921 16.111425 -26.234678 -10.445844 0.000000 0.000000 0.000000 -7.125000 0.000000 0.000000 -9.646485 40.654810 -1.044619 0.000000 0.000000 0.000000 -58.179443 -17.885841 34.600454 -159.152586 -31.649774 -114.030282 -35.733793 -43.714994 24.014363 0.000000 0.000000 0.000000 7.125000 0.000000 0.000000 -7.444840 58.585577 2.481986
